<?xml version="1.0" standalone="no"?>
<!DOCTYPE svg PUBLIC "-//W3C//DTD SVG 20010904//EN"
 "http://www.w3.org/TR/2001/REC-SVG-20010904/DTD/svg10.dtd">
<svg version="1.0" xmlns="http://www.w3.org/2000/svg"
 width="260.000000pt" height="260.000000pt" viewBox="0 0 260.000000 260.000000"
 preserveAspectRatio="xMidYMid meet">
<metadata>
Created by potrace 1.14, written by Peter Selinger 2001-2017
</metadata>
<g transform="translate(0.000000,260.000000) scale(0.100000,-0.100000)"
fill="#000000" stroke="none">
<path d="M1165 2589 c-437 -45 -824 -312 -1022 -703 -187 -372 -189 -797 -3
-1166 157 -311 437 -549 770 -654 214 -68 493 -75 713 -18 486 126 865 536
952 1029 19 114 19 332 0 446 -45 255 -176 507 -361 691 -219 218 -492 346
-802 376 -118 11 -132 11 -247 -1z m290 -99 c438 -63 810 -357 963 -763 57
-153 75 -252 75 -422 1 -291 -78 -520 -257 -749 -168 -216 -436 -378 -713
-432 -118 -24 -348 -23 -458 0 -242 52 -443 161 -616 335 -401 401 -466 1019
-155 1496 249 381 718 598 1161 535z"/>
<path d="M1100 2375 c-632 -120 -1030 -760 -854 -1372 73 -254 255 -495 471
-625 114 -69 113 -68 113 -17 0 24 7 159 15 299 20 350 24 312 -33 332 -105
38 -191 136 -233 267 -30 94 -37 258 -14 336 42 144 128 256 240 311 121 59
252 29 360 -81 93 -95 145 -224 145 -359 -1 -159 -49 -300 -135 -389 -42 -44
-131 -97 -162 -97 -16 0 -16 -21 5 -420 l17 -315 50 -14 c32 -9 107 -14 205
-15 133 -1 169 2 253 23 55 14 100 29 102 35 2 6 8 119 14 251 6 132 14 275
17 318 5 56 3 77 -5 77 -7 0 -37 12 -68 27 -68 34 -140 111 -149 161 -15 77
12 485 52 783 6 48 7 49 40 49 l34 0 0 -370 0 -370 35 0 35 0 0 370 0 370 35
0 35 0 0 -370 0 -370 35 0 35 0 0 370 0 370 40 0 40 0 0 -370 0 -370 30 0 30
0 0 370 0 370 29 0 c27 0 28 -2 35 -62 4 -35 16 -148 27 -253 11 -104 21 -267
22 -361 l2 -170 -28 -42 c-32 -49 -90 -94 -153 -118 -36 -14 -44 -21 -44 -43
0 -79 24 -508 30 -519 9 -18 139 75 226 163 131 132 232 309 281 493 24 87 27
115 27 272 0 157 -3 185 -27 272 -102 382 -397 679 -777 784 -120 33 -358 42
-480 19z"/>
<path d="M667 1583 c-28 -56 -47 -135 -47 -199 0 -53 31 -150 65 -203 29 -47
102 -111 127 -111 24 0 23 4 -16 56 -19 25 -49 82 -67 127 -44 114 -49 223
-17 356 2 7 -2 15 -9 18 -7 2 -23 -17 -36 -44z"/>
</g>
</svg>
