<?xml version="1.0" standalone="no"?>
<!DOCTYPE svg PUBLIC "-//W3C//DTD SVG 20010904//EN"
 "http://www.w3.org/TR/2001/REC-SVG-20010904/DTD/svg10.dtd">
<svg version="1.0" xmlns="http://www.w3.org/2000/svg"
 width="100.000000pt" height="100.000000pt" viewBox="0 0 100.000000 100.000000"
 preserveAspectRatio="xMidYMid meet">
<metadata>
Created by potrace 1.14, written by Peter Selinger 2001-2017
</metadata>
<g transform="translate(0.000000,100.000000) scale(0.100000,-0.100000)"
fill="#000000" stroke="none">
<path d="M760 643 c-61 -22 -81 -98 -34 -130 62 -43 87 -70 81 -87 -10 -26
-38 -31 -70 -12 -24 14 -32 14 -39 4 -5 -9 1 -21 19 -37 22 -19 35 -22 75 -19
61 6 88 30 88 77 0 46 -21 76 -69 101 -39 20 -51 36 -44 58 7 18 31 15 63 -8
24 -17 29 -18 40 -5 15 18 8 29 -34 49 -35 17 -50 18 -76 9z"/>
<path d="M128 545 c-4 -188 -7 -170 30 -173 l32 -3 0 65 0 66 35 0 c25 0 35 4
35 16 0 12 -8 15 -32 12 -32 -3 -33 -2 -33 37 0 40 0 40 43 43 28 2 42 8 42
18 0 11 -16 14 -75 14 l-75 0 -2 -95z"/>
<path d="M310 504 l0 -135 33 3 c34 3 34 2 36 91 1 36 2 37 37 37 24 0 34 4
31 13 -2 6 -18 12 -35 12 -31 0 -32 1 -32 42 l0 43 45 0 c33 0 45 4 45 15 0
12 -16 15 -80 15 l-80 0 0 -136z"/>
<path d="M480 600 c0 -39 1 -40 35 -40 l35 0 0 -95 c0 -88 1 -95 20 -95 19 0
20 7 20 94 l0 95 38 3 c35 3 37 5 40 41 l3 37 -95 0 -96 0 0 -40z"/>
</g>
</svg>
